<svg width="22.568481" height="24.000000" viewBox="0 0 22.5685 24" fill="none" xmlns="http://www.w3.org/2000/svg" xmlns:xlink="http://www.w3.org/1999/xlink">
	<desc>
			Created with Pixso.
	</desc>
	<defs/>
	<path id="Shape" d="M16.9702 4.67773C17.5345 4.18018 17.8634 3.46802 17.8761 2.71582C17.8787 1.99463 17.5933 1.30225 17.0833 0.792236C16.5731 0.282227 15.8806 -0.00292969 15.1594 0C14.5554 0.0163574 13.973 0.228027 13.4995 0.603027C12.9685 1.11963 12.6616 1.82422 12.645 2.56494C12.6543 3.58423 13.2386 4.51074 14.1545 4.95825C15.0706 5.40552 16.1606 5.29712 16.9702 4.67773ZM8.11768 5.23096C8.16748 5.18115 8.21802 5.18115 8.21802 5.13062L8.21265 5.12744C9.99597 4.82788 11.827 5.20483 13.347 6.18433C13.6763 6.34961 13.9954 6.53442 14.3027 6.73755C14.3784 6.75024 14.4486 6.78516 14.5043 6.83789L14.4545 6.83789C14.4031 6.88867 14.4031 6.88867 14.3533 6.93921C15.4257 7.64185 16.7627 7.80859 17.975 7.39136L18.0255 7.39136C18.0255 7.34082 18.0753 7.34082 18.1259 7.29102C18.9507 6.95605 19.6532 6.37695 20.139 5.6311C20.1776 5.55493 20.2295 5.48633 20.2924 5.42871C21.3989 4.57422 23.2604 5.83179 22.304 7.08936C21.9193 7.66479 21.463 8.18872 20.946 8.64893C19.2736 10.0977 16.9689 10.574 14.859 9.90723C13.954 11.4666 13.0988 13.0261 12.2428 14.6355C12.5961 14.8362 12.9478 15.0378 13.2498 15.2393L13.1493 15.3396C14.0575 15.9443 14.9602 16.6484 15.5134 17.1023C16.4691 17.8096 17.6262 20.7805 18.3306 22.2366C18.6055 22.7107 18.5223 23.311 18.1289 23.6926C17.8024 23.9553 17.3749 24.0569 16.9651 23.9692C16.5552 23.8813 16.2067 23.6138 16.0162 23.2405C15.4124 21.9302 14.3563 19.3667 13.7532 18.8647C12.4825 17.8525 11.0768 17.0225 9.57666 16.3987C9.52917 16.3987 9.42651 16.3489 9.37598 16.3489C7.27661 18.9658 3.58704 19.6694 0.671997 18.0088C0.238525 17.7444 -0.0180664 17.2664 0.000976562 16.759C0.0200195 16.2517 0.31189 15.7942 0.763916 15.563C1.21594 15.3318 1.75757 15.363 2.18005 15.6448C4.49512 16.9529 6.85852 15.2424 7.96594 13.0791C9.02271 10.9631 9.82812 9.45728 10.6833 7.89795C8.97205 7.34375 7.4126 7.8457 6.15576 9.6084C5.19946 11.0161 2.83533 9.6582 3.8407 8.24951C4.24109 7.68628 4.69629 7.16382 5.19946 6.69019C6.03296 5.97461 7.03882 5.48901 8.11768 5.28149L8.11768 5.23096Z" clip-rule="evenodd" fill="#FFFFFF" fill-opacity="1.000000" fill-rule="evenodd"/>
</svg>
